name analog
datacolumns 19
datarows 51
range 0.0 0.025
endheader
time	ground_force_vx	ground_force_vy	ground_force_vz	ground_force_px	ground_force_py	ground_force_pz	l_ground_force_vx	l_ground_force_vy	l_ground_force_vz	l_ground_force_px	l_ground_force_py	l_ground_force_pz	ground_torque_x	ground_torque_y	ground_torque_z	l_ground_torque_x	l_ground_torque_y	l_ground_torque_z
0.0	-0.0	-0.0	-0.0	-1.0816872119903564	77.2759780883789	-506.10687255859375	-26.180761337280277	-52.47404861450195	-386.5108642578125	-0.0	-0.0	-0.0	-0.0	-0.0	-0.0	70423.171875	17738.2890625	-20411.14453125
0.0005	-0.0	-0.0	-0.0	-1.539017915725708	78.7021484375	-506.06243896484375	-26.72422409057617	-51.9664192199707	-384.24212646484375	-0.0	-0.0	-0.0	-0.0	-0.0	-0.0	70550.3125	17642.1796875	-20422.57421875
0.001	-0.0	-0.0	-0.0	-2.174849033355713	80.6405029296875	-505.4005126953125	-27.489158630371094	-51.6132698059082	-383.76165771484375	-0.0	-0.0	-0.0	-0.0	-0.0	-0.0	70093.2890625	18043.134765625	-20308.158203125
0.0015	-0.0	-0.0	-0.0	-2.966620445251465	81.43121337890625	-504.55950927734375	-27.711530685424805	-51.04993438720703	-381.4898376464844	-0.0	-0.0	-0.0	-0.0	-0.0	-0.0	69763.109375	18437.326171875	-20478.724609375
0.002	-0.0	-0.0	-0.0	-2.877492904663086	82.05680847167969	-504.2130126953125	-28.04390525817871	-49.77009963989258	-378.3914184570313	-0.0	-0.0	-0.0	-0.0	-0.0	-0.0	69261.6171875	18600.005859375	-20385.896484375
0.0025	-0.0	-0.0	-0.0	-2.776979446411133	82.16679382324219	-505.6176452636719	-28.89697265625	-49.10685729980469	-375.2485046386719	-0.0	-0.0	-0.0	-0.0	-0.0	-0.0	68720.1328125	18748.822265625	-20327.029296875
0.003	-0.0	-0.0	-0.0	-2.0978903770446777	82.0545883178711	-505.4460754394531	-29.17441940307617	-48.16946029663086	-370.2806396484375	-0.0	-0.0	-0.0	-0.0	-0.0	-0.0	68283.890625	18833.61328125	-20208.353515625
0.0035	-0.0	-0.0	-0.0	-2.184049129486084	81.56586456298828	-505.5707092285156	-29.483339309692383	-45.99579620361328	-364.1320190429688	-0.0	-0.0	-0.0	-0.0	-0.0	-0.0	66709.21875	18873.115234375	-20093.21484375
0.004	-0.0	-0.0	-0.0	-1.4157392978668213	81.25206756591797	-503.3735046386719	-29.93806266784668	-45.3858528137207	-360.1116638183594	-0.0	-0.0	-0.0	-0.0	-0.0	-0.0	65746.1171875	18773.5859375	-19905.0859375
0.0045000000000000005	-0.0	-0.0	-0.0	-0.9696453213691713	81.17447662353516	-505.70745849609375	-30.558874130249023	-43.83062744140625	-354.2221374511719	-0.0	-0.0	-0.0	-0.0	-0.0	-0.0	64814.95703125	18644.130859375	-19789.119140625
0.005	-0.0	-0.0	-0.0	0.3639354109764099	80.06254577636719	-505.5862731933594	-30.616867065429688	-42.24095916748047	-348.01251220703125	-0.0	-0.0	-0.0	-0.0	-0.0	-0.0	63367.71484375	18763.328125	-19612.263671875
0.0055	-0.0	-0.0	-0.0	1.540187120437622	79.5514907836914	-507.6858215332031	-31.557600021362305	-40.12138366699219	-343.2423095703125	-0.0	-0.0	-0.0	-0.0	-0.0	-0.0	62569.3984375	18558.6875	-19553.26171875
0.006	-0.0	-0.0	-0.0	2.7536635398864746	78.94583892822266	-508.2259521484375	-31.504106521606445	-38.160457611083984	-336.32574462890625	-0.0	-0.0	-0.0	-0.0	-0.0	-0.0	61386.16796875	18470.97265625	-19566.791015625
0.006500000000000001	-0.0	-0.0	-0.0	3.818467378616333	78.57723999023438	-508.6736145019531	-32.39703369140625	-37.030391693115234	-330.0882568359375	-0.0	-0.0	-0.0	-0.0	-0.0	-0.0	60214.70703125	18388.923828125	-19563.275390625
0.007	-0.0	-0.0	-0.0	5.144894599914551	77.86407470703125	-508.5791015625	-32.68670654296875	-35.865020751953125	-325.4093017578125	-0.0	-0.0	-0.0	-0.0	-0.0	-0.0	59460.3359375	18119.74609375	-19337.84765625
0.0075	-0.0	-0.0	-0.0	6.01316499710083	77.965087890625	-508.7694396972656	-33.16590118408203	-34.299320220947266	-319.80255126953125	-0.0	-0.0	-0.0	-0.0	-0.0	-0.0	58634.734375	17936.376953125	-19424.6015625
0.008	-0.0	-0.0	-0.0	6.17216157913208	77.01319885253906	-507.5674743652344	-33.355255126953125	-34.22832489013672	-317.5861511230469	-0.0	-0.0	-0.0	-0.0	-0.0	-0.0	58110.03125	17705.162109375	-19436.716796875
0.0085	-0.0	-0.0	-0.0	6.6380391120910645	76.15380096435547	-505.8498840332031	-33.77467727661133	-33.8229866027832	-314.8397521972656	-0.0	-0.0	-0.0	-0.0	-0.0	-0.0	57557.5703125	17742.412109375	-19399.1953125
0.009000000000000001	-0.0	-0.0	-0.0	6.844809055328369	74.8047866821289	-504.3409423828125	-34.77854919433594	-33.433837890625	-312.6014709472656	-0.0	-0.0	-0.0	-0.0	-0.0	-0.0	57234.36328125	17844.90625	-19467.224609375
0.0095	-0.0	-0.0	-0.0	7.201509475708008	73.67076110839844	-501.4183349609375	-35.814788818359375	-32.3344612121582	-311.0941162109375	-0.0	-0.0	-0.0	-0.0	-0.0	-0.0	57058.44921875	17536.123046875	-19501.443359375
0.01	-0.0	-0.0	-0.0	7.518306732177734	71.49185180664062	-496.3153076171875	-36.39587020874024	-31.530841827392575	-308.0960693359375	-0.0	-0.0	-0.0	-0.0	-0.0	-0.0	56831.9921875	17503.2578125	-19650.0
0.0105	-0.0	-0.0	-0.0	8.35112476348877	69.45733642578125	-489.5564270019531	-37.19442367553711	-30.15443229675293	-308.4079895019531	-0.0	-0.0	-0.0	-0.0	-0.0	-0.0	56512.33984375	17501.271484375	-19714.58203125
0.011	-0.0	-0.0	-0.0	8.257149696350098	66.93485260009766	-483.35552978515625	-36.47249221801758	-29.46253204345703	-306.8070068359375	-0.0	-0.0	-0.0	-0.0	-0.0	-0.0	56311.50390625	17225.572265625	-19722.080078125
0.0115	-0.0	-0.0	-0.0	9.279691696166992	64.1221923828125	-474.17236328125	-36.676666259765625	-27.289493560791016	-303.5591735839844	-0.0	-0.0	-0.0	-0.0	-0.0	-0.0	56000.2109375	16780.494140625	-19535.37109375
0.012	-0.0	-0.0	-0.0	9.73777961730957	61.933082580566406	-463.8197021484375	-36.14410400390625	-26.420602798461918	-304.9621276855469	-0.0	-0.0	-0.0	-0.0	-0.0	-0.0	56321.47265625	16677.595703125	-19356.22265625
0.0125	-0.0	-0.0	-0.0	10.413403511047363	58.8900146484375	-459.3873291015625	-35.17953109741211	-25.550987243652344	-303.05926513671875	-0.0	-0.0	-0.0	-0.0	-0.0	-0.0	56233.07421875	16197.9140625	-19143.521484375
0.013000000000000001	-0.0	-0.0	-0.0	11.15131378173828	56.57194137573242	-451.0085754394531	-34.660770416259766	-25.42412567138672	-303.21209716796875	-0.0	-0.0	-0.0	-0.0	-0.0	-0.0	56491.609375	15961.1220703125	-18634.44140625
0.0135	-0.0	-0.0	-0.0	11.304259300231934	54.39495849609375	-445.1075744628906	-32.544036865234375	-25.4871883392334	-303.76190185546875	-0.0	-0.0	-0.0	-0.0	-0.0	-0.0	56381.953125	15529.7626953125	-18158.521484375
0.014	-0.0	-0.0	-0.0	12.094538688659668	53.36357879638672	-440.4154052734375	-31.112224578857425	-26.78662109375	-302.0166320800781	-0.0	-0.0	-0.0	-0.0	-0.0	-0.0	55764.1171875	14935.5	-17488.359375
0.0145	-0.0	-0.0	-0.0	12.642958641052246	51.275672912597656	-435.5186767578125	-29.693227767944336	-27.9350700378418	-301.5188293457031	-0.0	-0.0	-0.0	-0.0	-0.0	-0.0	55893.1953125	14664.728515625	-16843.45703125
0.015	-0.0	-0.0	-0.0	13.03764820098877	50.20622253417969	-429.8200073242188	-27.551633834838867	-29.285545349121094	-300.918212890625	-0.0	-0.0	-0.0	-0.0	-0.0	-0.0	55571.34375	14151.509765625	-16050.2548828125
0.0155	-0.0	-0.0	-0.0	13.70102882385254	49.211456298828125	-426.2369079589844	-25.890684127807617	-30.45817375183105	-299.71875	-0.0	-0.0	-0.0	-0.0	-0.0	-0.0	55163.63671875	13910.0341796875	-15197.8271484375
0.016	-0.0	-0.0	-0.0	15.370268821716309	48.01525115966797	-419.2761840820313	-23.610008239746094	-31.455402374267575	-295.484130859375	-0.0	-0.0	-0.0	-0.0	-0.0	-0.0	54583.0390625	13312.5751953125	-14454.4853515625
0.0165	-0.0	-0.0	-0.0	16.312450408935547	46.13266372680664	-410.5076904296875	-22.53253936767578	-32.073699951171875	-293.63653564453125	-0.0	-0.0	-0.0	-0.0	-0.0	-0.0	54163.30078125	12665.10546875	-13792.626953125
0.017	-0.0	-0.0	-0.0	17.660959243774414	44.68057632446289	-398.9588928222656	-20.8496150970459	-32.59070587158203	-290.00115966796875	-0.0	-0.0	-0.0	-0.0	-0.0	-0.0	53511.4609375	12108.755859375	-13143.333984375
0.0175	-0.0	-0.0	-0.0	17.77930450439453	42.48881530761719	-388.9951477050781	-18.7573184967041	-32.276588439941406	-289.0064697265625	-0.0	-0.0	-0.0	-0.0	-0.0	-0.0	52852.78515625	11459.2646484375	-12469.34375
0.018000000000000002	-0.0	-0.0	-0.0	17.954200744628906	40.31344604492188	-374.0700988769531	-17.48919677734375	-31.39354133605957	-287.54541015625	-0.0	-0.0	-0.0	-0.0	-0.0	-0.0	53064.51953125	10548.6103515625	-12050.7998046875
0.0185	-0.0	-0.0	-0.0	16.392223358154297	37.36313247680664	-360.048828125	-16.260568618774414	-30.271961212158203	-287.351806640625	-0.0	-0.0	-0.0	-0.0	-0.0	-0.0	53266.203125	9720.392578125	-11724.6044921875
0.019	-0.0	-0.0	-0.0	14.51900863647461	36.2627067565918	-346.87567138671875	-14.867853164672852	-29.764408111572266	-289.0975341796875	-0.0	-0.0	-0.0	-0.0	-0.0	-0.0	54133.83203125	8849.7177734375	-11219.251953125
0.0195	-0.0	-0.0	-0.0	11.472634315490724	35.09055709838867	-335.5740661621094	-14.042962074279783	-29.587764739990234	-293.1643981933594	-0.0	-0.0	-0.0	-0.0	-0.0	-0.0	54866.26953125	8009.310546875	-10954.6201171875
0.02	-0.0	-0.0	-0.0	8.466773986816406	34.57733154296875	-327.50469970703125	-12.65883445739746	-29.274513244628903	-298.1227111816406	-0.0	-0.0	-0.0	-0.0	-0.0	-0.0	56463.05859375	6848.15625	-10627.201171875
0.0205	-0.0	-0.0	-0.0	7.15038013458252	33.99370574951172	-320.7945861816406	-11.975955963134766	-30.53253173828125	-304.111083984375	-0.0	-0.0	-0.0	-0.0	-0.0	-0.0	58309.24609375	5567.19140625	-10382.5107421875
0.021	-0.0	-0.0	-0.0	6.4095563888549805	31.93585968017578	-313.4622497558594	-10.911426544189451	-31.252429962158203	-314.0769958496094	-0.0	-0.0	-0.0	-0.0	-0.0	-0.0	60544.578125	4075.84912109375	-9948.6357421875
0.021500000000000002	-0.0	-0.0	-0.0	5.915240287780762	30.413623809814453	-303.62384033203125	-9.696632385253906	-32.10853576660156	-321.8643493652344	-0.0	-0.0	-0.0	-0.0	-0.0	-0.0	62730.05078125	2274.91748046875	-9512.0859375
0.022	-0.0	-0.0	-0.0	5.860464096069336	28.837142944335938	-296.15509033203125	-8.26372241973877	-32.88975143432617	-332.60675048828125	-0.0	-0.0	-0.0	-0.0	-0.0	-0.0	65513.03125	764.1841430664062	-8952.216796875
0.0225	-0.0	-0.0	-0.0	5.098789215087891	26.423933029174805	-288.5736083984375	-6.339549541473389	-33.501190185546875	-345.0414733886719	-0.0	-0.0	-0.0	-0.0	-0.0	-0.0	68566.953125	-1037.1094970703125	-8277.9375
0.023	-0.0	-0.0	-0.0	5.098847389221191	24.332599639892575	-280.9425354003906	-4.155654430389404	-34.906925201416016	-358.1457214355469	-0.0	-0.0	-0.0	-0.0	-0.0	-0.0	72010.59375	-3194.894287109375	-7674.341796875
0.0235	-0.0	-0.0	-0.0	4.940227508544922	22.207347869873047	-276.89306640625	-1.7742156982421875	-36.71435546875	-372.4362182617188	-0.0	-0.0	-0.0	-0.0	-0.0	-0.0	75446.4609375	-5610.03173828125	-6897.25732421875
0.024	-0.0	-0.0	-0.0	4.4605255126953125	21.00145721435547	-273.8250427246094	0.6403400897979736	-38.778690338134766	-387.4923706054688	-0.0	-0.0	-0.0	-0.0	-0.0	-0.0	78785.1796875	-7566.69580078125	-6015.443359375
0.0245	-0.0	-0.0	-0.0	5.146195411682129	20.026351928710938	-273.3612670898437	1.9046576023101809	-40.28853988647461	-395.2396240234375	-0.0	-0.0	-0.0	-0.0	-0.0	-0.0	81601.34375	-9570.6650390625	-5362.3603515625
0.025	-0.0	-0.0	-0.0	5.366698741912842	19.45853805541992	-271.8928527832031	3.39895248413086	-41.687835693359375	-402.0577087402344	-0.0	-0.0	-0.0	-0.0	-0.0	-0.0	83132.03125	-11298.5654296875	-4699.76123046875
